<?xml version="1.0" encoding="UTF-8"?>
<!DOCTYPE svg PUBLIC "-//W3C//DTD SVG 1.1//EN" "http://www.w3.org/Graphics/SVG/1.1/DTD/svg11.dtd">
<svg xmlns="http://www.w3.org/2000/svg" version="1.1" width="1613px" height="56px" style="shape-rendering:geometricPrecision; text-rendering:geometricPrecision; image-rendering:optimizeQuality; fill-rule:evenodd; clip-rule:evenodd" xmlns:xlink="http://www.w3.org/1999/xlink">
<g><path style="opacity:0.962" fill="#fefffe" d="M 1603.5,-0.5 C 1606.5,-0.5 1609.5,-0.5 1612.5,-0.5C 1612.5,18.1667 1612.5,36.8333 1612.5,55.5C 1074.83,55.5 537.167,55.5 -0.5,55.5C -0.5,43.5 -0.5,31.5 -0.5,19.5C 120.882,34.5935 242.715,43.5935 365,46.5C 460.841,43.9627 556.674,41.1294 652.5,38C 765.828,39.067 879.161,39.4003 992.5,39C 1118.94,37.2491 1245.28,32.5825 1371.5,25C 1435.72,21.315 1499.72,15.315 1563.5,7C 1577.1,5.17904 1590.43,2.67904 1603.5,-0.5 Z"/></g>
</svg>
