<?xml version="1.0" encoding="UTF-8"?>
<!DOCTYPE svg PUBLIC "-//W3C//DTD SVG 1.1//EN" "http://www.w3.org/Graphics/SVG/1.1/DTD/svg11.dtd">
<svg xmlns="http://www.w3.org/2000/svg" version="1.1" width="1613px" height="112px" style="shape-rendering:geometricPrecision; text-rendering:geometricPrecision; image-rendering:optimizeQuality; fill-rule:evenodd; clip-rule:evenodd" xmlns:xlink="http://www.w3.org/1999/xlink">
<g><path style="opacity:1" fill="#fefffe" d="M 1604.5,-0.5 C 1607.17,-0.5 1609.83,-0.5 1612.5,-0.5C 1612.5,36.8333 1612.5,74.1667 1612.5,111.5C 1074.83,111.5 537.167,111.5 -0.5,111.5C -0.5,87.8333 -0.5,64.1667 -0.5,40.5C 107.063,66.7472 216.063,83.9139 326.5,92C 353.167,92.6667 379.833,92.6667 406.5,92C 490.17,86.9997 573.837,81.9997 657.5,77C 696.833,76.3333 736.167,76.3333 775.5,77C 983.267,84.3127 1190.27,74.6461 1396.5,48C 1456.37,40.2267 1515.37,28.2267 1573.5,12C 1584.37,8.88633 1594.71,4.71967 1604.5,-0.5 Z"/></g>
</svg>
