<?xml version="1.0" encoding="UTF-8"?>
<!DOCTYPE svg PUBLIC "-//W3C//DTD SVG 1.1//EN" "http://www.w3.org/Graphics/SVG/1.1/DTD/svg11.dtd">
<svg xmlns="http://www.w3.org/2000/svg" version="1.1" width="1613px" height="112px" style="shape-rendering:geometricPrecision; text-rendering:geometricPrecision; image-rendering:optimizeQuality; fill-rule:evenodd; clip-rule:evenodd" xmlns:xlink="http://www.w3.org/1999/xlink">
<g><path style="opacity:0.981" fill="#f4f7fa" d="M 1608.5,-0.5 C 1609.83,-0.5 1611.17,-0.5 1612.5,-0.5C 1612.5,36.8333 1612.5,74.1667 1612.5,111.5C 1074.83,111.5 537.167,111.5 -0.5,111.5C -0.5,88.1667 -0.5,64.8333 -0.5,41.5C 86.2352,62.1782 173.902,77.6782 262.5,88C 310.38,93.4404 358.38,95.1071 406.5,93C 474.547,89.4252 542.547,85.0919 610.5,80C 687.175,75.7517 763.841,76.0851 840.5,81C 1021.16,82.9631 1201.16,72.9631 1380.5,51C 1447.26,43.3817 1512.92,30.3817 1577.5,12C 1588.29,8.68701 1598.63,4.52034 1608.5,-0.5 Z"/></g>
</svg>
