<?xml version="1.0" encoding="UTF-8"?>
<!DOCTYPE svg PUBLIC "-//W3C//DTD SVG 1.1//EN" "http://www.w3.org/Graphics/SVG/1.1/DTD/svg11.dtd">
<svg xmlns="http://www.w3.org/2000/svg" version="1.1" width="1613px" height="224px" style="shape-rendering:geometricPrecision; text-rendering:geometricPrecision; image-rendering:optimizeQuality; fill-rule:evenodd; clip-rule:evenodd" xmlns:xlink="http://www.w3.org/1999/xlink">
<g><path style="opacity:1" fill="#fefffe" d="M 1610.5,-0.5 C 1611.17,-0.5 1611.83,-0.5 1612.5,-0.5C 1612.5,74.1667 1612.5,148.833 1612.5,223.5C 1074.83,223.5 537.167,223.5 -0.5,223.5C -0.5,177.167 -0.5,130.833 -0.5,84.5C 58.0063,111.95 118.006,135.783 179.5,156C 239.742,176.115 301.575,187.615 365,190.5C 386.209,189.592 407.376,188.092 428.5,186C 486.264,179.081 543.931,171.415 601.5,163C 652.004,156.638 702.67,154.638 753.5,157C 782.512,159.186 811.512,161.52 840.5,164C 1020.33,167.649 1197.66,148.315 1372.5,106C 1436.15,90.784 1497.15,68.4506 1555.5,39C 1575.66,28.2633 1594,15.0966 1610.5,-0.5 Z"/></g>
</svg>
