<?xml version="1.0" encoding="UTF-8"?>
<!DOCTYPE svg PUBLIC "-//W3C//DTD SVG 1.1//EN" "http://www.w3.org/Graphics/SVG/1.1/DTD/svg11.dtd">
<!-- Creator: CorelDRAW X7 -->
<svg xmlns="http://www.w3.org/2000/svg" xml:space="preserve" width="84.6667mm" height="67.7334mm" version="1.1" style="shape-rendering:geometricPrecision; text-rendering:geometricPrecision; image-rendering:optimizeQuality; fill-rule:evenodd; clip-rule:evenodd"
viewBox="0 0 36417 29133"
 xmlns:xlink="http://www.w3.org/1999/xlink">
 <defs>
  <style type="text/css">
   <![CDATA[
    .fil0 {fill:none}
    .fil6 {fill:#4D8B48}
    .fil4 {fill:#AC2833}
    .fil5 {fill:#E6E6E6}
    .fil1 {fill:#000066;fill-rule:nonzero}
    .fil2 {fill:#4D8B48;fill-rule:nonzero}
    .fil3 {fill:#AC2833;fill-rule:nonzero}
   ]]>
  </style>
 </defs>
 <g id="Layer_x0020_1">
  <metadata id="CorelCorpID_0Corel-Layer"/>
  <rect class="fil0" width="36417" height="29133"/>
  <g id="_1932202618320">
   <polygon class="fil1" points="10159,16757 10159,16459 10215,16459 10215,16757 "/>
   <polygon id="1" class="fil1" points="10469,16757 10469,16503 10313,16503 10313,16459 10677,16459 10677,16503 10526,16503 10526,16757 "/>
   <polygon id="2" class="fil1" points="11040,16757 10887,16517 10731,16757 10668,16757 10866,16459 10907,16459 11104,16757 "/>
   <polygon id="3" class="fil1" points="11190,16757 11190,16459 11246,16459 11246,16713 11488,16713 11488,16757 "/>
   <polygon id="4" class="fil1" points="11588,16757 11588,16459 11644,16459 11644,16757 "/>
   <polygon id="5" class="fil1" points="12105,16757 11951,16517 11795,16757 11733,16757 11931,16459 11972,16459 12168,16757 "/>
   <polygon id="6" class="fil1" points="12621,16757 12304,16525 12304,16757 12254,16757 12254,16459 12303,16459 12600,16681 12600,16459 12649,16459 12649,16757 "/>
   <polygon id="7" class="fil1" points="12976,16757 12976,16459 13032,16459 13032,16757 "/>
   <polygon id="8" class="fil1" points="13515,16757 13197,16525 13197,16757 13148,16757 13148,16459 13197,16459 13493,16681 13493,16459 13542,16459 13542,16757 "/>
   <path id="9" class="fil1" d="M13760 16757c-71,0 -106,-21 -106,-64l0 -169c0,-43 35,-65 106,-65l233 0 0 44 -233 0c-33,0 -50,7 -50,21l0 169c0,13 17,20 50,20l132 0c33,0 49,-6 49,-19l0 -99 57 0 0 99c0,42 -36,63 -106,63l-132 0z"/>
   <polygon id="10" class="fil1" points="14108,16757 14108,16459 14415,16459 14415,16503 14165,16503 14165,16578 14402,16578 14402,16622 14165,16622 14165,16713 14415,16713 14415,16757 "/>
   <polygon id="11" class="fil1" points="14888,16757 14570,16525 14570,16757 14521,16757 14521,16459 14570,16459 14866,16681 14866,16459 14915,16459 14915,16757 "/>
   <path id="12" class="fil1" d="M15121 16757c-17,0 -31,-2 -43,-5 -12,-4 -22,-9 -29,-15 -7,-6 -13,-14 -16,-23 -4,-8 -5,-18 -5,-29l0 -226 56 0 0 227c0,18 12,27 37,27l185 0c25,0 37,-9 37,-27l0 -227 56 0 0 226c0,11 -1,21 -3,29 -2,9 -6,17 -12,23 -6,6 -14,11 -25,15 -11,3 -24,5 -41,5l-197 0z"/>
   <polygon id="13" class="fil1" points="15514,16757 15514,16459 15570,16459 15570,16757 "/>
   <polygon id="14" class="fil1" points="15824,16757 15824,16503 15668,16503 15668,16459 16032,16459 16032,16503 15881,16503 15881,16757 "/>
   <polygon id="15" class="fil1" points="16292,16757 16292,16636 16101,16459 16173,16459 16320,16596 16468,16459 16539,16459 16349,16636 16349,16757 "/>
   <polygon id="16" class="fil1" points="16838,16757 16838,16459 16895,16459 16895,16757 "/>
   <polygon id="17" class="fil1" points="17377,16757 17059,16525 17059,16757 17010,16757 17010,16459 17059,16459 17356,16681 17356,16459 17405,16459 17405,16757 "/>
   <polygon id="18" class="fil1" points="18074,16757 17921,16517 17765,16757 17702,16757 17900,16459 17941,16459 18138,16757 "/>
   <path id="19" class="fil1" d="M18507 16757l-70 -133 -157 0 0 133 -56 0 0 -298 253 0c17,0 31,2 43,6 12,3 22,8 29,14 8,7 13,14 16,23 4,9 5,19 5,29l0 21c0,20 -5,36 -16,48 -12,13 -31,21 -57,23l70 134 -60 0zm7 -226c0,-18 -12,-28 -37,-28l-197 0 0 77 197 0c25,0 37,-9 37,-27l0 -22z"/>
   <polygon id="20" class="fil1" points="18813,16757 18813,16503 18657,16503 18657,16459 19021,16459 19021,16503 18869,16503 18869,16757 "/>
   <polygon id="21" class="fil1" points="19119,16757 19119,16459 19175,16459 19175,16757 "/>
   <polygon id="22" class="fil1" points="19348,16634 19348,16757 19291,16757 19291,16459 19598,16459 19598,16503 19348,16503 19348,16590 19581,16590 19581,16634 "/>
   <polygon id="23" class="fil1" points="19689,16757 19689,16459 19745,16459 19745,16757 "/>
   <path id="24" class="fil1" d="M19952 16757c-17,0 -31,-2 -43,-5 -12,-4 -21,-9 -29,-15 -7,-6 -13,-14 -16,-23 -4,-8 -5,-18 -5,-29l0 -154c0,-10 1,-20 5,-29 3,-9 9,-16 16,-23 8,-6 17,-11 29,-14 12,-4 26,-6 43,-6l240 0 0 44 -240 0c-25,0 -37,10 -37,28l0 155c0,18 12,27 37,27l240 0 0 44 -240 0z"/>
   <polygon id="25" class="fil1" points="20300,16757 20300,16459 20356,16459 20356,16757 "/>
   <polygon id="26" class="fil1" points="20817,16757 20663,16517 20507,16757 20445,16757 20643,16459 20684,16459 20880,16757 "/>
   <polygon id="27" class="fil1" points="20966,16757 20966,16459 21023,16459 21023,16713 21265,16713 21265,16757 "/>
   <polygon id="28" class="fil1" points="21576,16757 21576,16459 21633,16459 21633,16757 "/>
   <polygon id="29" class="fil1" points="22115,16757 21797,16525 21797,16757 21748,16757 21748,16459 21797,16459 22094,16681 22094,16459 22143,16459 22143,16757 "/>
   <polygon id="30" class="fil1" points="22395,16757 22395,16503 22238,16503 22238,16459 22603,16459 22603,16503 22451,16503 22451,16757 "/>
   <polygon id="31" class="fil1" points="22699,16757 22699,16459 23005,16459 23005,16503 22755,16503 22755,16578 22993,16578 22993,16622 22755,16622 22755,16713 23005,16713 23005,16757 "/>
   <polygon id="32" class="fil1" points="23112,16757 23112,16459 23168,16459 23168,16713 23410,16713 23410,16757 "/>
   <polygon id="33" class="fil1" points="23508,16757 23508,16459 23565,16459 23565,16713 23806,16713 23806,16757 "/>
   <polygon id="34" class="fil1" points="23906,16757 23906,16459 23962,16459 23962,16757 "/>
   <path id="35" class="fil1" d="M24182 16757c-70,0 -106,-21 -106,-64l0 -169c0,-43 36,-65 106,-65l233 0 0 44 -233 0c-33,0 -50,7 -50,21l0 169c0,13 17,20 50,20l132 0c33,0 50,-6 50,-19l0 -99 56 0 0 99c0,42 -35,63 -106,63l-132 0z"/>
   <polygon id="36" class="fil1" points="24531,16757 24531,16459 24837,16459 24837,16503 24587,16503 24587,16578 24824,16578 24824,16622 24587,16622 24587,16713 24837,16713 24837,16757 "/>
   <polygon id="37" class="fil1" points="25310,16757 24992,16525 24992,16757 24943,16757 24943,16459 24992,16459 25289,16681 25289,16459 25338,16459 25338,16757 "/>
   <path id="38" class="fil1" d="M25543 16757c-17,0 -32,-2 -44,-5 -11,-4 -21,-9 -28,-15 -8,-6 -13,-14 -17,-23 -3,-8 -5,-18 -5,-29l0 -154c0,-10 2,-20 5,-29 4,-9 9,-16 17,-23 7,-6 17,-11 28,-14 12,-4 27,-6 44,-6l239 0 0 44 -239 0c-25,0 -38,10 -38,28l0 155c0,18 13,27 38,27l239 0 0 44 -239 0z"/>
   <polygon id="39" class="fil1" points="25888,16757 25888,16459 26195,16459 26195,16503 25945,16503 25945,16578 26182,16578 26182,16622 25945,16622 25945,16713 26195,16713 26195,16757 "/>
   <path class="fil2" d="M10591 15634c0,60 -21,111 -63,153 -42,42 -93,63 -153,63 -60,0 -111,-21 -153,-63 -42,-42 -63,-93 -63,-153l0 -1529c0,-60 21,-111 63,-153 42,-42 93,-63 153,-63 60,0 111,21 153,63 42,42 63,93 63,153l0 1529zm3760 -1745c60,0 111,21 153,63 42,42 63,93 63,153 0,60 -21,111 -63,153 -42,42 -93,63 -153,63l-1331 0 0 1313c0,60 -21,111 -63,153 -42,42 -93,63 -153,63 -60,0 -111,-21 -153,-63 -42,-42 -63,-93 -63,-153l0 -1313 -1350 0c-54,-6 -100,-29 -139,-70 -39,-40 -58,-89 -58,-146 0,-60 21,-111 62,-153 42,-42 93,-63 153,-63l3095 0zm486 1880c-45,54 -101,81 -167,81 -60,0 -110,-21 -152,-63 -42,-42 -63,-93 -63,-153 0,-54 15,-97 45,-130l1093 -1471c51,-69 118,-125 202,-169 84,-43 174,-65 270,-65 90,0 175,19 256,58 81,39 147,93 198,162l1093 1462c18,21 33,45 45,70 12,25 18,53 18,83 0,60 -21,111 -63,153 -42,42 -93,63 -153,63 -72,0 -129,-28 -171,-85l-1048 -1399c-21,-24 -47,-50 -78,-79 -32,-28 -64,-43 -97,-43 -33,0 -65,15 -97,43 -31,29 -56,55 -74,79l-1057 1403zm3904 81c-84,0 -163,-16 -238,-47 -75,-32 -140,-74 -196,-128 -55,-54 -100,-117 -133,-189 -33,-72 -49,-150 -49,-234l0 -1147c0,-60 21,-111 63,-153 42,-42 93,-63 153,-63 57,0 107,21 151,63 43,42 65,93 65,153l0 1147c0,45 17,84 52,117 34,33 74,49 119,49l2699 0c60,0 111,21 153,63 42,42 63,93 63,153 0,60 -21,111 -63,153 -42,42 -93,63 -153,63l-2686 0z"/>
   <path class="fil3" d="M26195 15634c0,60 -21,111 -63,153 -42,42 -93,63 -153,63 -60,0 -111,-21 -153,-63 -42,-42 -63,-93 -63,-153l0 -1529c0,-60 21,-111 63,-153 42,-42 93,-63 153,-63 60,0 111,21 153,63 42,42 63,93 63,153l0 1529z"/>
   <path class="fil3" d="M22475 15769c-45,54 -101,81 -167,81 -60,0 -111,-21 -153,-63 -42,-42 -63,-93 -63,-153 0,-54 15,-97 45,-130l1093 -1471c51,-69 119,-125 203,-169 84,-43 174,-65 270,-65 90,0 175,19 256,58 81,39 147,93 198,162l1093 1462c18,21 33,45 45,70 12,25 18,53 18,83 0,60 -21,111 -63,153 -42,42 -93,63 -153,63 -72,0 -129,-28 -171,-85l-1048 -1399c-21,-24 -47,-50 -79,-79 -31,-28 -63,-43 -96,-43 -33,0 -66,15 -97,43 -32,29 -56,55 -74,79l-1057 1403z"/>
   <path class="fil3" d="M23424 15364c0,-78 27,-144 81,-198 54,-54 120,-81 198,-81 78,0 144,27 198,81 54,54 81,120 81,198 0,78 -27,144 -81,198 -54,54 -120,81 -198,81 -78,0 -144,-27 -198,-81 -54,-54 -81,-120 -81,-198z"/>
   <path class="fil4" d="M22597 12544c1066,-46 2113,143 3045,702 -923,-625 -1973,-869 -3051,-870l6 168z"/>
   <path class="fil5" d="M19594 13189c922,-333 1902,-579 2870,-638l-6 -173c-993,18 -2007,237 -2964,552l100 259z"/>
   <path class="fil6" d="M14794 15810c0,0 2092,-1614 4676,-2575l-102 -263c-2667,908 -4855,2532 -4855,2532l281 306z"/>
   <path class="fil3" d="M25700 13419c0,-78 27,-144 81,-198 54,-54 120,-81 198,-81 78,0 144,27 198,81 54,54 81,120 81,198 0,78 -27,144 -81,198 -54,54 -120,81 -198,81 -78,0 -144,-27 -198,-81 -54,-54 -81,-120 -81,-198z"/>
  </g>
 </g>
</svg>
