<?xml version="1.0" encoding="UTF-8" standalone="no"?>
<svg
   viewBox="1054.131 1344.892 48 48.000001"
   style="clip-rule:evenodd;fill-rule:evenodd;image-rendering:optimizeQuality;shape-rendering:geometricPrecision;text-rendering:geometricPrecision"
   version="1.1"
   id="svg8"
   sodipodi:docname="favicon.svg"
   inkscape:version="1.4.4 (dcaf3e7d9e, 2026-05-05)"
   width="0.5in"
   height="0.5in"
   xmlns:inkscape="http://www.inkscape.org/namespaces/inkscape"
   xmlns:sodipodi="http://sodipodi.sourceforge.net/DTD/sodipodi-0.dtd"
   xmlns="http://www.w3.org/2000/svg"
   xmlns:svg="http://www.w3.org/2000/svg">
  <sodipodi:namedview
     id="namedview8"
     pagecolor="#808080"
     bordercolor="#000000"
     borderopacity="0.25"
     inkscape:showpageshadow="2"
     inkscape:pageopacity="0.0"
     inkscape:pagecheckerboard="true"
     inkscape:deskcolor="#d1d1d1"
     inkscape:zoom="15.135777"
     inkscape:cx="31.283495"
     inkscape:cy="33.827137"
     inkscape:window-width="2560"
     inkscape:window-height="1412"
     inkscape:window-x="0"
     inkscape:window-y="0"
     inkscape:window-maximized="1"
     inkscape:current-layer="svg8"
     inkscape:document-units="in" />
  <defs
     id="defs1">
    <style
       type="text/css"
       id="style1">
   
    .fil0 {fill:none}
    .fil5 {fill:#4D8B48}
    .fil3 {fill:#AC2833}
    .fil4 {fill:#E6E6E6}
    .fil1 {fill:#4D8B48;fill-rule:nonzero}
    .fil2 {fill:#AC2833;fill-rule:nonzero}
   
  </style>
  </defs>
  <g
     id="g1"
     transform="matrix(1.2,0,0,1.2,-210.7128,-274.78292)">
    <path
       class="fil2"
       d="m 1092.0353,1379.9313 c 0,0.4976 -0.1658,0.9952 -0.4976,1.327 -0.4148,0.4148 -0.8295,0.5806 -1.41,0.5806 -0.4977,0 -0.9954,-0.1658 -1.3271,-0.5806 -0.4147,-0.3318 -0.5807,-0.8294 -0.5807,-1.327 v -13.6858 c 0,-0.4978 0.166,-0.9954 0.5807,-1.3272 0.3317,-0.4147 0.8294,-0.5806 1.3271,-0.5806 0.5805,0 0.9952,0.1659 1.41,0.5806 0.3318,0.3318 0.4976,0.8294 0.4976,1.3272 z"
       id="path2"
       style="clip-rule:evenodd;fill:#6a7cff;fill-opacity:1;fill-rule:evenodd;stroke-width:0.082944;image-rendering:optimizeQuality;shape-rendering:geometricPrecision;text-rendering:geometricPrecision" />
    <path
       class="fil2"
       d="m 1058.8577,1381.0924 c -0.4147,0.4977 -0.9124,0.7465 -1.4929,0.7465 -0.5807,0 -0.9954,-0.1658 -1.4101,-0.5806 -0.3317,-0.3318 -0.4977,-0.8294 -0.4977,-1.327 0,-0.4978 0.084,-0.9125 0.3318,-1.1613 l 9.7875,-13.1881 c 0.4976,-0.5806 1.0782,-1.0783 1.8247,-1.493 0.7465,-0.4148 1.5759,-0.5806 2.4054,-0.5806 0.8294,0 1.5759,0.1658 2.3223,0.4976 0.6636,0.4148 1.2442,0.8295 1.742,1.4931 l 9.7873,13.0221 c 0.1659,0.2489 0.2489,0.4148 0.3318,0.6636 0.1658,0.2488 0.1658,0.4977 0.1658,0.7466 0,0.4976 -0.1658,0.9952 -0.4976,1.327 -0.4147,0.4148 -0.8295,0.5806 -1.41,0.5806 -0.6636,0 -1.1613,-0.2488 -1.4931,-0.7465 l -9.3726,-12.5245 c -0.1659,-0.1659 -0.4147,-0.4148 -0.7465,-0.6635 -0.2489,-0.2489 -0.4976,-0.4147 -0.8294,-0.4147 -0.3318,0 -0.5807,0.1658 -0.8295,0.4147 -0.3318,0.2487 -0.4976,0.4976 -0.6636,0.6635 z"
       id="path3"
       style="clip-rule:evenodd;fill:#6a7cff;fill-opacity:1;fill-rule:evenodd;stroke-width:0.082944;image-rendering:optimizeQuality;shape-rendering:geometricPrecision;text-rendering:geometricPrecision" />
    <path
       class="fil2"
       d="m 1067.3181,1377.5259 c 0,-0.7466 0.2487,-1.3271 0.7465,-1.8249 0.4147,-0.4147 1.0782,-0.6635 1.7418,-0.6635 0.6635,0 1.2441,0.2488 1.7418,0.6635 0.4976,0.4978 0.7465,1.0783 0.7465,1.8249 0,0.6634 -0.2489,1.2441 -0.7465,1.7418 -0.4977,0.4976 -1.0783,0.7465 -1.7418,0.7465 -0.6636,0 -1.3271,-0.2489 -1.7418,-0.7465 -0.4978,-0.4977 -0.7465,-1.0784 -0.7465,-1.7418 z"
       id="path4"
       style="clip-rule:evenodd;fill:#6a7cff;fill-opacity:1;fill-rule:evenodd;stroke-width:0.082944;image-rendering:optimizeQuality;shape-rendering:geometricPrecision;text-rendering:geometricPrecision" />
    <path
       class="fil2"
       d="m 1087.6393,1360.1076 c 0,-0.6636 0.2488,-1.2441 0.7466,-1.7418 0.4976,-0.4977 1.0782,-0.7465 1.7418,-0.7465 0.7465,0 1.327,0.2488 1.7418,0.7465 0.4976,0.4977 0.7465,1.0782 0.7465,1.7418 0,0.7465 -0.2489,1.3271 -0.7465,1.7418 -0.4148,0.4977 -0.9953,0.7465 -1.7418,0.7465 -0.6636,0 -1.2442,-0.2488 -1.7418,-0.7465 -0.4978,-0.4147 -0.7466,-0.9953 -0.7466,-1.7418 z"
       id="path8"
       style="clip-rule:evenodd;fill:#e4453a;fill-opacity:1;fill-rule:evenodd;stroke-width:0.082944;image-rendering:optimizeQuality;shape-rendering:geometricPrecision;text-rendering:geometricPrecision" />
  </g>
</svg>
